<?xml version="1.0" standalone="no"?>
<!DOCTYPE svg PUBLIC "-//W3C//DTD SVG 1.1//EN" "http://www.w3.org/Graphics/SVG/1.1/DTD/svg11.dtd">
<svg width="216.425837183924mm" height="3026.86878764944mm"
 viewBox="0 0 216.425837183924 3026.86878764944"
 xmlns="http://www.w3.org/2000/svg" version="1.1"
 xmlns:xlink="http://www.w3.org/1999/xlink">
<desc>Output from Flights of Ideas SVG Sketchup Plugin</desc>

<g id="text_annotations" font-size="10" stroke="rgb(255,0,0)" stroke-width="1">
<text style="fill:none" stroke="rgb(255,0,0)" stroke-width="1" x="133.696216632864" y="855.729905880706">
<tspan dy="10" >Top</tspan>
</text>
<text style="fill:none" stroke="rgb(255,0,0)" stroke-width="1" x="12.1508323253818" y="198.151157112488">
<tspan dy="10" >MSB Side, Bottom, Rear</tspan>
</text>
<text style="fill:none" stroke="rgb(255,0,0)" stroke-width="1" x="91.7850741671259" y="319.713493966078">
<tspan dy="10" >LSB, Top, Front</tspan>
</text>
</g>
  <g id="face0" fill="none" stroke="rgb(0,0,255)" stroke-width="1" stroke-miterlimit="4" stroke-dasharray="none" stroke-linejoin="round" stroke-linecap="round">
    <line x1="10.0" y1="10.0" x2="10.0" y2="185.0"/>
    <line x1="10.0" y1="185.0" x2="92.9999999999999" y2="185.0"/>
    <line x1="92.9999999999999" y1="185.0" x2="92.9999999999999" y2="10.0"/>
    <line x1="92.9999999999999" y1="10.0" x2="10.0" y2="10.0"/>
  </g>
  <g id="face1" fill="none" stroke="rgb(0,0,255)" stroke-width="1" stroke-miterlimit="4" stroke-dasharray="none" stroke-linejoin="round" stroke-linecap="round">
    <line x1="94.0" y1="195.0" x2="10.0" y2="195.0"/>
    <line x1="10.0" y1="195.0" x2="10.0" y2="308.234000000001"/>
    <line x1="10.0" y1="308.234000000001" x2="94.0" y2="308.234000000001"/>
    <line x1="94.0" y1="308.234000000001" x2="94.0" y2="195.0"/>
  </g>
  <g id="face2" fill="none" stroke="rgb(0,0,255)" stroke-width="1" stroke-miterlimit="4" stroke-dasharray="none" stroke-linejoin="round" stroke-linecap="round">
    <line x1="94.0" y1="318.234000000001" x2="10.0" y2="318.234000000001"/>
    <line x1="10.0" y1="318.234000000001" x2="10.0" y2="431.468000000002"/>
    <line x1="10.0" y1="431.468000000002" x2="94.0" y2="431.468000000002"/>
    <line x1="94.0" y1="431.468000000002" x2="94.0" y2="318.234000000001"/>
  </g>
  <g id="face3" fill="none" stroke="rgb(0,0,255)" stroke-width="1" stroke-miterlimit="4" stroke-dasharray="none" stroke-linejoin="round" stroke-linecap="round">
    <line x1="94.0" y1="623.467999999996" x2="94.0" y2="441.468000000002"/>
    <line x1="94.0" y1="441.468000000002" x2="10.0" y2="441.468000000002"/>
    <line x1="10.0" y1="441.468000000002" x2="10.0" y2="623.467999999996"/>
    <line x1="10.0" y1="623.467999999996" x2="94.0" y2="623.467999999996"/>
    <line x1="19.9572423579579" y1="572.279980887187" x2="19.9572423579579" y2="561.078580887187"/>
    <line x1="19.9572423579579" y1="561.078580887187" x2="25.5430685119692" y2="560.934176036705"/>
    <line x1="25.5430685119692" y1="560.934176036705" x2="25.5430685119692" y2="572.135576036705"/>
    <line x1="25.5430685119692" y1="572.135576036705" x2="19.9572423579579" y2="572.279980887187"/>
  </g>
  <g id="face4" fill="none" stroke="rgb(0,0,255)" stroke-width="1" stroke-miterlimit="4" stroke-dasharray="none" stroke-linejoin="round" stroke-linecap="round">
    <line x1="191.999999999995" y1="633.467999999996" x2="10.0" y2="633.467999999996"/>
    <line x1="10.0" y1="633.467999999996" x2="10.0" y2="746.701999999997"/>
    <line x1="10.0" y1="746.701999999997" x2="191.999999999995" y2="746.701999999997"/>
    <line x1="191.999999999995" y1="746.701999999997" x2="191.999999999995" y2="633.467999999996"/>
  </g>
  <g id="face5" fill="none" stroke="rgb(0,0,255)" stroke-width="1" stroke-miterlimit="4" stroke-dasharray="none" stroke-linejoin="round" stroke-linecap="round">
    <line x1="24.4258371839296" y1="869.286351001612" x2="24.4258371839295" y2="756.701999999997"/>
    <line x1="24.4258371839295" y1="756.701999999997" x2="206.425837183924" y2="756.701999999998"/>
    <line x1="206.425837183924" y1="756.701999999998" x2="206.425837183924" y2="869.286351001612"/>
    <line x1="206.425837183924" y1="869.286351001612" x2="24.4258371839296" y2="869.286351001612"/>
  </g>
  <g id="face6" fill="none" stroke="rgb(0,0,255)" stroke-width="1" stroke-miterlimit="4" stroke-dasharray="none" stroke-linejoin="round" stroke-linecap="round">
    <line x1="10.0" y1="2410.89707047772" x2="199.858585858586" y2="2410.89707047772"/>
    <line x1="199.858585858586" y1="2410.89707047772" x2="199.858585858586" y2="2361.63646441712"/>
    <line x1="199.858585858586" y1="2361.63646441712" x2="197.16465820929" y2="2336.47697710318"/>
    <line x1="197.16465820929" y1="2336.47697710318" x2="189.082828282828" y2="2317.95616138681"/>
    <line x1="189.082828282828" y1="2317.95616138681" x2="183.10163774394" y2="2311.30547868894"/>
    <line x1="183.10163774394" y1="2311.30547868894" x2="175.933852085923" y2="2306.55500740621"/>
    <line x1="175.933852085923" y1="2306.55500740621" x2="167.579443415247" y2="2303.70473432591"/>
    <line x1="167.579443415247" y1="2303.70473432591" x2="158.038383838384" y2="2302.7546462353"/>
    <line x1="158.038383838384" y1="2302.7546462353" x2="142.02704149304" y2="2305.19200198869"/>
    <line x1="142.02704149304" y1="2305.19200198869" x2="128.501237179535" y2="2312.5040932275"/>
    <line x1="128.501237179535" y1="2312.5040932275" x2="117.460925387373" y2="2324.6909559197"/>
    <line x1="117.460925387373" y1="2324.6909559197" x2="108.906060606061" y2="2341.75262603328"/>
    <line x1="108.906060606061" y1="2341.75262603328" x2="100.351196925809" y2="2321.37964330299"/>
    <line x1="100.351196925809" y1="2321.37964330299" x2="88.926038483899" y2="2306.82756731006"/>
    <line x1="88.926038483899" y1="2306.82756731006" x2="74.6305375677167" y2="2298.09635401207"/>
    <line x1="74.6305375677167" y1="2298.09635401207" x2="57.4646464646465" y2="2295.18595936661"/>
    <line x1="57.4646464646465" y1="2295.18595936661" x2="46.6006679272411" y2="2296.14807287131"/>
    <line x1="46.6006679272411" y1="2296.14807287131" x2="37.0997340173433" y2="2299.03442366197"/>
    <line x1="37.0997340173433" y1="2299.03442366197" x2="28.9618118866526" y2="2303.84502715343"/>
    <line x1="28.9618118866526" y1="2303.84502715343" x2="22.1868686868687" y2="2310.57989876055"/>
    <line x1="22.1868686868687" y1="2310.57989876055" x2="16.8550964667039" y2="2319.12675173742"/>
    <line x1="16.8550964667039" y1="2319.12675173742" x2="13.0467019097974" y2="2329.37331744446"/>
    <line x1="13.0467019097974" y1="2329.37331744446" x2="10.0" y2="2354.96575734641"/>
    <line x1="10.0" y1="2354.96575734641" x2="10.0" y2="2410.89707047772"/>
    <line x1="30.140404040404" y1="2384.21424219489" x2="30.140404040404" y2="2378.69808057873"/>
    <line x1="30.140404040404" y1="2378.69808057873" x2="31.070449651853" y2="2354.29224656184"/>
    <line x1="31.070449651853" y1="2354.29224656184" x2="33.8606060606061" y2="2340.34151492217"/>
    <line x1="33.8606060606061" y1="2340.34151492217" x2="38.1420466473608" y2="2333.04540484025"/>
    <line x1="38.1420466473608" y1="2333.04540484025" x2="43.9307931553234" y2="2327.83391763274"/>
    <line x1="43.9307931553234" y1="2327.83391763274" x2="51.2268703583515" y2="2324.70703715075"/>
    <line x1="51.2268703583515" y1="2324.70703715075" x2="60.030303030303" y2="2323.6647472454"/>
    <line x1="60.030303030303" y1="2323.6647472454" x2="68.1402010647938" y2="2324.6108261306"/>
    <line x1="68.1402010647938" y1="2324.6108261306" x2="75.5364967500321" y2="2327.44907208406"/>
    <line x1="75.5364967500321" y1="2327.44907208406" x2="88.1883838383838" y2="2338.80212098277"/>
    <line x1="88.1883838383838" y1="2338.80212098277" x2="96.6069581465288" y2="2355.83165713947"/>
    <line x1="96.6069581465288" y1="2355.83165713947" x2="99.4131313131313" y2="2376.64555532621"/>
    <line x1="99.4131313131313" y1="2376.64555532621" x2="99.4131313131313" y2="2384.21424219489"/>
    <line x1="99.4131313131313" y1="2384.21424219489" x2="30.140404040404" y2="2384.21424219489"/>
    <line x1="116.474747474747" y1="2384.21424219489" x2="116.474747474747" y2="2375.61929269994"/>
    <line x1="116.474747474747" y1="2375.61929269994" x2="118.783826639195" y2="2356.48910369826"/>
    <line x1="118.783826639195" y1="2356.48910369826" x2="125.711111111111" y2="2342.20161593227"/>
    <line x1="125.711111111111" y1="2342.20161593227" x2="136.839638634884" y2="2333.30197906062"/>
    <line x1="136.839638634884" y1="2333.30197906062" x2="151.752525252525" y2="2330.33545431611"/>
    <line x1="151.752525252525" y1="2330.33545431611" x2="163.987541840293" y2="2333.04540851045"/>
    <line x1="163.987541840293" y1="2333.04540851045" x2="172.726804868139" y2="2341.17529849767"/>
    <line x1="172.726804868139" y1="2341.17529849767" x2="177.970342229593" y2="2354.725165384"/>
    <line x1="177.970342229593" y1="2354.725165384" x2="179.718181818182" y2="2373.6950502757"/>
    <line x1="179.718181818182" y1="2373.6950502757" x2="179.718181818182" y2="2384.21424219489"/>
    <line x1="179.718181818182" y1="2384.21424219489" x2="116.474747474747" y2="2384.21424219489"/>
  </g>
  <g id="face7" fill="none" stroke="rgb(0,0,255)" stroke-width="1" stroke-miterlimit="4" stroke-dasharray="none" stroke-linejoin="round" stroke-linecap="round">
    <line x1="10.0" y1="2446.16878764944" x2="149.315151515152" y2="2446.16878764944"/>
    <line x1="149.315151515152" y1="2446.16878764944" x2="149.315151515152" y2="2420.89707047772"/>
    <line x1="149.315151515152" y1="2420.89707047772" x2="10.0" y2="2420.89707047772"/>
    <line x1="10.0" y1="2420.89707047772" x2="10.0" y2="2446.16878764944"/>
  </g>
  <g id="face8" fill="none" stroke="rgb(0,0,255)" stroke-width="1" stroke-miterlimit="4" stroke-dasharray="none" stroke-linejoin="round" stroke-linecap="round">
    <line x1="10.0" y1="2481.44050482116" x2="35.2717171717172" y2="2481.44050482116"/>
    <line x1="35.2717171717172" y1="2481.44050482116" x2="35.2717171717172" y2="2456.16878764944"/>
    <line x1="35.2717171717172" y1="2456.16878764944" x2="10.0" y2="2456.16878764944"/>
    <line x1="10.0" y1="2456.16878764944" x2="10.0" y2="2481.44050482116"/>
  </g>
  <g id="face9" fill="none" stroke="rgb(0,0,255)" stroke-width="1" stroke-miterlimit="4" stroke-dasharray="none" stroke-linejoin="round" stroke-linecap="round">
    <line x1="10.0" y1="2605.35565633631" x2="149.315151515152" y2="2605.35565633631"/>
    <line x1="149.315151515152" y1="2605.35565633631" x2="149.315151515152" y2="2580.08393916459"/>
    <line x1="149.315151515152" y1="2580.08393916459" x2="123.145454545455" y2="2580.08393916459"/>
    <line x1="123.145454545455" y1="2580.08393916459" x2="135.941706304839" y2="2569.51662944015"/>
    <line x1="135.941706304839" y1="2569.51662944015" x2="145.081853415749" y2="2557.82688411704"/>
    <line x1="145.081853415749" y1="2557.82688411704" x2="150.565922303633" y2="2545.0146562167"/>
    <line x1="150.565922303633" y1="2545.0146562167" x2="152.393939393939" y2="2531.07989876055"/>
    <line x1="152.393939393939" y1="2531.07989876055" x2="149.523626770636" y2="2514.82003853106"/>
    <line x1="149.523626770636" y1="2514.82003853106" x2="140.912626262626" y2="2502.21626239691"/>
    <line x1="140.912626262626" y1="2502.21626239691" x2="127.458973454947" y2="2494.13443247045"/>
    <line x1="127.458973454947" y1="2494.13443247045" x2="110.060606060606" y2="2491.44050482116"/>
    <line x1="110.060606060606" y1="2491.44050482116" x2="10.0" y2="2491.44050482116"/>
    <line x1="10.0" y1="2491.44050482116" x2="10.0" y2="2516.71222199287"/>
    <line x1="10.0" y1="2516.71222199287" x2="101.850505050505" y2="2516.71222199287"/>
    <line x1="101.850505050505" y1="2516.71222199287" x2="115.143823897237" y2="2517.850728179"/>
    <line x1="115.143823897237" y1="2517.850728179" x2="123.979292929293" y2="2521.26626239691"/>
    <line x1="123.979292929293" y1="2521.26626239691" x2="128.93422500148" y2="2527.3115789351"/>
    <line x1="128.93422500148" y1="2527.3115789351" x2="130.585858585859" y2="2536.33949472015"/>
    <line x1="130.585858585859" y1="2536.33949472015" x2="128.685683505704" y2="2547.78074002075"/>
    <line x1="128.685683505704" y1="2547.78074002075" x2="122.985139180193" y2="2558.88520179085"/>
    <line x1="122.985139180193" y1="2558.88520179085" x2="113.484196981758" y2="2569.65292113672"/>
    <line x1="113.484196981758" y1="2569.65292113672" x2="100.182828282828" y2="2580.08393916459"/>
    <line x1="100.182828282828" y1="2580.08393916459" x2="10.0" y2="2580.08393916459"/>
    <line x1="10.0" y1="2580.08393916459" x2="10.0" y2="2605.35565633631"/>
  </g>
  <g id="face10" fill="none" stroke="rgb(0,0,255)" stroke-width="1" stroke-miterlimit="4" stroke-dasharray="none" stroke-linejoin="round" stroke-linecap="round">
    <line x1="10.0" y1="2731.06676744742" x2="199.858585858586" y2="2731.06676744742"/>
    <line x1="199.858585858586" y1="2731.06676744742" x2="199.858585858586" y2="2681.80616138681"/>
    <line x1="199.858585858586" y1="2681.80616138681" x2="197.16465820929" y2="2656.6466799452"/>
    <line x1="197.16465820929" y1="2656.6466799452" x2="189.082828282828" y2="2638.12585835651"/>
    <line x1="189.082828282828" y1="2638.12585835651" x2="183.10163774394" y2="2631.47516905227"/>
    <line x1="183.10163774394" y1="2631.47516905227" x2="175.933852085923" y2="2626.72469850359"/>
    <line x1="175.933852085923" y1="2626.72469850359" x2="167.579443415247" y2="2623.87442909348"/>
    <line x1="167.579443415247" y1="2623.87442909348" x2="158.038383838384" y2="2622.92434320499"/>
    <line x1="158.038383838384" y1="2622.92434320499" x2="142.02704149304" y2="2625.36169785732"/>
    <line x1="142.02704149304" y1="2625.36169785732" x2="128.501237179535" y2="2632.67378726103"/>
    <line x1="128.501237179535" y1="2632.67378726103" x2="117.460925387373" y2="2644.86064958622"/>
    <line x1="117.460925387373" y1="2644.86064958622" x2="108.906060606061" y2="2661.92232300297"/>
    <line x1="108.906060606061" y1="2661.92232300297" x2="100.351196925809" y2="2641.54934027269"/>
    <line x1="100.351196925809" y1="2641.54934027269" x2="88.926038483899" y2="2626.99726427976"/>
    <line x1="88.926038483899" y1="2626.99726427976" x2="74.6305375677167" y2="2618.26605098177"/>
    <line x1="74.6305375677167" y1="2618.26605098177" x2="57.4646464646465" y2="2615.35565633631"/>
    <line x1="57.4646464646465" y1="2615.35565633631" x2="46.6006679272411" y2="2616.31776873995"/>
    <line x1="46.6006679272411" y1="2616.31776873995" x2="37.0997340173432" y2="2619.20411769551"/>
    <line x1="37.0997340173432" y1="2619.20411769551" x2="28.9618118866525" y2="2624.01472081995"/>
    <line x1="28.9618118866525" y1="2624.01472081995" x2="22.1868686868686" y2="2630.74959573025"/>
    <line x1="22.1868686868686" y1="2630.74959573025" x2="16.8550964667038" y2="2639.29645090923"/>
    <line x1="16.8550964667038" y1="2639.29645090923" x2="13.0467019097973" y2="2649.54301441416"/>
    <line x1="13.0467019097973" y1="2649.54301441416" x2="10.0" y2="2675.13545431611"/>
    <line x1="10.0" y1="2675.13545431611" x2="10.0" y2="2731.06676744742"/>
    <line x1="30.140404040404" y1="2704.38393916459" x2="30.140404040404" y2="2698.86777754843"/>
    <line x1="30.140404040404" y1="2698.86777754843" x2="31.070449651853" y2="2674.46194206345"/>
    <line x1="31.070449651853" y1="2674.46194206345" x2="33.860606060606" y2="2660.51121189186"/>
    <line x1="33.860606060606" y1="2660.51121189186" x2="38.1420466473608" y2="2653.21510841631"/>
    <line x1="38.1420466473608" y1="2653.21510841631" x2="43.9307931553233" y2="2648.00362047476"/>
    <line x1="43.9307931553233" y1="2648.00362047476" x2="51.2268703583515" y2="2644.87673632257"/>
    <line x1="51.2268703583515" y1="2644.87673632257" x2="60.030303030303" y2="2643.8344442151"/>
    <line x1="60.030303030303" y1="2643.8344442151" x2="68.1402010647938" y2="2644.78052420136"/>
    <line x1="68.1402010647938" y1="2644.78052420136" x2="75.536496750032" y2="2647.61877198991"/>
    <line x1="75.536496750032" y1="2647.61877198991" x2="88.1883838383838" y2="2658.97181795247"/>
    <line x1="88.1883838383838" y1="2658.97181795247" x2="96.6069581465288" y2="2676.00135557725"/>
    <line x1="96.6069581465288" y1="2676.00135557725" x2="99.4131313131314" y2="2696.8152522959"/>
    <line x1="99.4131313131314" y1="2696.8152522959" x2="99.4131313131314" y2="2704.38393916459"/>
    <line x1="99.4131313131314" y1="2704.38393916459" x2="30.140404040404" y2="2704.38393916459"/>
    <line x1="116.474747474747" y1="2704.38393916459" x2="116.474747474747" y2="2695.78898966964"/>
    <line x1="116.474747474747" y1="2695.78898966964" x2="118.783826639195" y2="2676.6588050722"/>
    <line x1="118.783826639195" y1="2676.6588050722" x2="125.711111111111" y2="2662.37131290196"/>
    <line x1="125.711111111111" y1="2662.37131290196" x2="136.839638634884" y2="2653.47167603032"/>
    <line x1="136.839638634884" y1="2653.47167603032" x2="151.752525252525" y2="2650.5051512858"/>
    <line x1="151.752525252525" y1="2650.5051512858" x2="163.987541840293" y2="2653.21510548015"/>
    <line x1="163.987541840293" y1="2653.21510548015" x2="172.726804868139" y2="2661.34499546736"/>
    <line x1="172.726804868139" y1="2661.34499546736" x2="177.970342229593" y2="2674.8948623537"/>
    <line x1="177.970342229593" y1="2674.8948623537" x2="179.718181818182" y2="2693.8647472454"/>
    <line x1="179.718181818182" y1="2693.8647472454" x2="179.718181818182" y2="2704.38393916459"/>
    <line x1="179.718181818182" y1="2704.38393916459" x2="116.474747474747" y2="2704.38393916459"/>
  </g>
  <g id="face11" fill="none" stroke="rgb(0,0,255)" stroke-width="1" stroke-miterlimit="4" stroke-dasharray="none" stroke-linejoin="round" stroke-linecap="round">
    <line x1="10.0" y1="2808.4152522959" x2="11.2387217704093" y2="2822.6065695363"/>
    <line x1="11.2387217704093" y1="2822.6065695363" x2="14.9548994685664" y2="2835.29052048068"/>
    <line x1="14.9548994685664" y1="2835.29052048068" x2="21.1485516748645" y2="2846.46714036298"/>
    <line x1="21.1485516748645" y1="2846.46714036298" x2="29.8196969696969" y2="2856.13646441712"/>
    <line x1="29.8196969696969" y1="2856.13646441712" x2="40.5674049719415" y2="2863.93768152903"/>
    <line x1="40.5674049719415" y1="2863.93768152903" x2="52.9907657006773" y2="2869.50996492513"/>
    <line x1="52.9907657006773" y1="2869.50996492513" x2="67.0898294376603" y2="2872.85332635004"/>
    <line x1="67.0898294376603" y1="2872.85332635004" x2="82.8646464646464" y2="2873.96777754843"/>
    <line x1="82.8646464646464" y1="2873.96777754843" x2="98.7917995337284" y2="2872.84932044782"/>
    <line x1="98.7917995337284" y1="2872.84932044782" x2="112.963022667471" y2="2869.49393740135"/>
    <line x1="112.963022667471" y1="2869.49393740135" x2="125.378365780609" y2="2863.90161079206"/>
    <line x1="125.378365780609" y1="2863.90161079206" x2="136.037878787879" y2="2856.07232300297"/>
    <line x1="136.037878787879" y1="2856.07232300297" x2="144.596772960701" y2="2846.32682221106"/>
    <line x1="144.596772960701" y1="2846.32682221106" x2="150.710248804574" y2="2834.98584093375"/>
    <line x1="150.710248804574" y1="2834.98584093375" x2="154.378322468382" y2="2822.04933806479"/>
    <line x1="154.378322468382" y1="2822.04933806479" x2="155.60101010101" y2="2807.51727249793"/>
    <line x1="155.60101010101" y1="2807.51727249793" x2="154.378322468382" y2="2792.98520693106"/>
    <line x1="154.378322468382" y1="2792.98520693106" x2="150.710248804574" y2="2780.0487040621"/>
    <line x1="150.710248804574" y1="2780.0487040621" x2="144.596772960701" y2="2768.70772278479"/>
    <line x1="144.596772960701" y1="2768.70772278479" x2="136.037878787879" y2="2758.96222199287"/>
    <line x1="136.037878787879" y1="2758.96222199287" x2="125.394401501164" y2="2751.13293420379"/>
    <line x1="125.394401501164" y1="2751.13293420379" x2="113.027165060332" y2="2745.5406075945"/>
    <line x1="113.027165060332" y1="2745.5406075945" x2="98.9361188166068" y2="2742.18522454803"/>
    <line x1="98.9361188166068" y1="2742.18522454803" x2="83.121212121212" y2="2741.06676744742"/>
    <line x1="83.121212121212" y1="2741.06676744742" x2="66.9735719317138" y2="2742.18923045025"/>
    <line x1="66.9735719317138" y1="2742.18923045025" x2="52.6540220530346" y2="2745.55663511827"/>
    <line x1="52.6540220530346" y1="2745.55663511827" x2="40.1625116528886" y2="2751.16900494076"/>
    <line x1="40.1625116528886" y1="2751.16900494076" x2="29.4989898989899" y2="2759.02636340701"/>
    <line x1="29.4989898989899" y1="2759.02636340701" x2="20.9681544293056" y2="2768.84804093671"/>
    <line x1="20.9681544293056" y1="2768.84804093671" x2="14.8747231290797" y2="2780.35338360904"/>
    <line x1="14.8747231290797" y1="2780.35338360904" x2="11.2186777390614" y2="2793.54243840258"/>
    <line x1="11.2186777390614" y1="2793.54243840258" x2="10.0" y2="2808.4152522959"/>
    <line x1="28.9858585858585" y1="2808.03040381106" x2="32.3692926739201" y2="2790.46362997066"/>
    <line x1="32.3692926739201" y1="2790.46362997066" x2="36.5985948494588" y2="2783.56241285778"/>
    <line x1="36.5985948494588" y1="2783.56241285778" x2="42.5196289486355" y2="2777.91597072285"/>
    <line x1="42.5196289486355" y1="2777.91597072285" x2="59.4369184258007" y2="2770.38739670601"/>
    <line x1="59.4369184258007" y1="2770.38739670601" x2="83.121212121212" y2="2767.87787855853"/>
    <line x1="83.121212121212" y1="2767.87787855853" x2="106.524886579224" y2="2770.35532306278"/>
    <line x1="106.524886579224" y1="2770.35532306278" x2="123.241734198368" y2="2777.7876800648"/>
    <line x1="123.241734198368" y1="2777.7876800648" x2="129.092613771106" y2="2783.36196176309"/>
    <line x1="129.092613771106" y1="2783.36196176309" x2="133.271805627418" y2="2790.17498479854"/>
    <line x1="133.271805627418" y1="2790.17498479854" x2="136.615151515151" y2="2807.51727249792"/>
    <line x1="136.615151515151" y1="2807.51727249792" x2="133.255769906863" y2="2824.80344526841"/>
    <line x1="133.255769906863" y1="2824.80344526841" x2="129.056533537489" y2="2831.59442005978"/>
    <line x1="129.056533537489" y1="2831.59442005978" x2="123.177591805506" y2="2837.15066063959"/>
    <line x1="123.177591805506" y1="2837.15066063959" x2="106.380567296346" y2="2844.55895971772"/>
    <line x1="106.380567296346" y1="2844.55895971772" x2="82.8646464646464" y2="2847.02838360904"/>
    <line x1="82.8646464646464" y1="2847.02838360904" x2="59.2926007945129" y2="2844.59102455247"/>
    <line x1="59.2926007945129" y1="2844.59102455247" x2="42.4554880238542" y2="2837.27892780835"/>
    <line x1="42.4554880238542" y1="2837.27892780835" x2="36.5625156480857" y2="2831.79484362796"/>
    <line x1="36.5625156480857" y1="2831.79484362796" x2="32.3532575038947" y2="2825.09206401509"/>
    <line x1="32.3532575038947" y1="2825.09206401509" x2="28.9858585858585" y2="2808.03040381106"/>
  </g>
  <g id="face12" fill="none" stroke="rgb(0,0,255)" stroke-width="1" stroke-miterlimit="4" stroke-dasharray="none" stroke-linejoin="round" stroke-linecap="round">
    <line x1="10.0" y1="2951.31626239691" x2="11.2387217704094" y2="2965.50757963731"/>
    <line x1="11.2387217704094" y1="2965.50757963731" x2="14.9548994685664" y2="2978.19153058169"/>
    <line x1="14.9548994685664" y1="2978.19153058169" x2="21.1485516748645" y2="2989.36815046399"/>
    <line x1="21.1485516748645" y1="2989.36815046399" x2="29.819696969697" y2="2999.03747451813"/>
    <line x1="29.819696969697" y1="2999.03747451813" x2="40.5674049719415" y2="3006.83869163004"/>
    <line x1="40.5674049719415" y1="3006.83869163004" x2="52.9907657006775" y2="3012.41097502614"/>
    <line x1="52.9907657006775" y1="3012.41097502614" x2="67.0898294376605" y2="3015.75433645105"/>
    <line x1="67.0898294376605" y1="3015.75433645105" x2="82.8646464646465" y2="3016.86878764944"/>
    <line x1="82.8646464646465" y1="3016.86878764944" x2="98.7917995337284" y2="3015.75033054883"/>
    <line x1="98.7917995337284" y1="3015.75033054883" x2="112.963022667471" y2="3012.39494750236"/>
    <line x1="112.963022667471" y1="3012.39494750236" x2="125.378365780609" y2="3006.80262089307"/>
    <line x1="125.378365780609" y1="3006.80262089307" x2="136.037878787879" y2="2998.97333310398"/>
    <line x1="136.037878787879" y1="2998.97333310398" x2="144.596772960701" y2="2989.22783231207"/>
    <line x1="144.596772960701" y1="2989.22783231207" x2="150.710248804574" y2="2977.88685103476"/>
    <line x1="150.710248804574" y1="2977.88685103476" x2="154.378322468382" y2="2964.9503481658"/>
    <line x1="154.378322468382" y1="2964.9503481658" x2="155.60101010101" y2="2950.41828259894"/>
    <line x1="155.60101010101" y1="2950.41828259894" x2="154.378322468382" y2="2935.88621703207"/>
    <line x1="154.378322468382" y1="2935.88621703207" x2="150.710248804574" y2="2922.94971416311"/>
    <line x1="150.710248804574" y1="2922.94971416311" x2="144.596772960701" y2="2911.6087328858"/>
    <line x1="144.596772960701" y1="2911.6087328858" x2="136.037878787879" y2="2901.86323209388"/>
    <line x1="136.037878787879" y1="2901.86323209388" x2="125.394401501164" y2="2894.0339443048"/>
    <line x1="125.394401501164" y1="2894.0339443048" x2="113.027165060332" y2="2888.44161769551"/>
    <line x1="113.027165060332" y1="2888.44161769551" x2="98.9361188166069" y2="2885.08623464904"/>
    <line x1="98.9361188166069" y1="2885.08623464904" x2="83.1212121212122" y2="2883.96777754843"/>
    <line x1="83.1212121212122" y1="2883.96777754843" x2="66.9735719317138" y2="2885.09024055126"/>
    <line x1="66.9735719317138" y1="2885.09024055126" x2="52.6540220530346" y2="2888.45764521928"/>
    <line x1="52.6540220530346" y1="2888.45764521928" x2="40.1625116528886" y2="2894.07001504177"/>
    <line x1="40.1625116528886" y1="2894.07001504177" x2="29.4989898989899" y2="2901.92737350803"/>
    <line x1="29.4989898989899" y1="2901.92737350803" x2="20.9681544293056" y2="2911.74905103772"/>
    <line x1="20.9681544293056" y1="2911.74905103772" x2="14.8747231290798" y2="2923.25439371005"/>
    <line x1="14.8747231290798" y1="2923.25439371005" x2="11.2186777390615" y2="2936.44344850359"/>
    <line x1="11.2186777390615" y1="2936.44344850359" x2="10.0" y2="2951.31626239691"/>
    <line x1="28.9858585858586" y1="2950.93141391207" x2="32.3692926739202" y2="2933.36464007167"/>
    <line x1="32.3692926739202" y1="2933.36464007167" x2="36.5985948494588" y2="2926.46342295879"/>
    <line x1="36.5985948494588" y1="2926.46342295879" x2="42.5196289486356" y2="2920.81698082386"/>
    <line x1="42.5196289486356" y1="2920.81698082386" x2="59.4369184258009" y2="2913.28840680702"/>
    <line x1="59.4369184258009" y1="2913.28840680702" x2="83.1212121212122" y2="2910.77888865954"/>
    <line x1="83.1212121212122" y1="2910.77888865954" x2="106.524886579225" y2="2913.25633316379"/>
    <line x1="106.524886579225" y1="2913.25633316379" x2="123.241734198368" y2="2920.68869016581"/>
    <line x1="123.241734198368" y1="2920.68869016581" x2="129.092613771106" y2="2926.2629718641"/>
    <line x1="129.092613771106" y1="2926.2629718641" x2="133.271805627418" y2="2933.07599489955"/>
    <line x1="133.271805627418" y1="2933.07599489955" x2="136.615151515152" y2="2950.41828259893"/>
    <line x1="136.615151515152" y1="2950.41828259893" x2="133.255769906863" y2="2967.70445536942"/>
    <line x1="133.255769906863" y1="2967.70445536942" x2="129.056533537489" y2="2974.49543016079"/>
    <line x1="129.056533537489" y1="2974.49543016079" x2="123.177591805506" y2="2980.05167074061"/>
    <line x1="123.177591805506" y1="2980.05167074061" x2="106.380567296346" y2="2987.45996981873"/>
    <line x1="106.380567296346" y1="2987.45996981873" x2="82.8646464646465" y2="2989.92939371005"/>
    <line x1="82.8646464646465" y1="2989.92939371005" x2="59.2926007945129" y2="2987.49203465348"/>
    <line x1="59.2926007945129" y1="2987.49203465348" x2="42.4554880238543" y2="2980.17993790936"/>
    <line x1="42.4554880238543" y1="2980.17993790936" x2="36.5625156480857" y2="2974.69585372897"/>
    <line x1="36.5625156480857" y1="2974.69585372897" x2="32.3532575038948" y2="2967.9930741161"/>
    <line x1="32.3532575038948" y1="2967.9930741161" x2="28.9858585858586" y2="2950.93141391207"/>
  </g>
</svg>
